<?xml version="1.0" standalone="no"?>
<!DOCTYPE svg PUBLIC "-//W3C//DTD SVG 20010904//EN"
 "http://www.w3.org/TR/2001/REC-SVG-20010904/DTD/svg10.dtd">
<svg version="1.0" xmlns="http://www.w3.org/2000/svg"
 width="342.000000pt" height="339.000000pt" viewBox="0 0 342.000000 339.000000"
 preserveAspectRatio="xMidYMid meet">
<metadata>
Created by potrace 1.16, written by Peter Selinger 2001-2019
</metadata>
<g transform="translate(0.000000,339.000000) scale(0.100000,-0.100000)"
fill="#5857c3" stroke="none">
<path d="M1495 2795 c-226 -42 -400 -116 -573 -244 -217 -161 -381 -386 -466
-641 l-35 -105 132 -6 c212 -11 341 -51 542 -168 l40 -24 58 37 c185 119 425
173 637 146 154 -20 275 -65 445 -165 l31 -18 67 43 c151 95 299 139 500 147
75 3 137 9 137 14 0 4 -16 54 -36 111 -156 453 -558 792 -1033 872 -114 19
-346 20 -446 1z"/>
<path d="M380 1420 l0 -160 108 0 c127 0 178 -13 254 -64 129 -85 246 -121
393 -120 146 1 266 39 390 124 22 15 65 35 95 44 109 32 202 14 319 -62 81
-53 154 -80 266 -100 154 -26 326 11 462 99 97 63 149 78 276 79 l107 0 0 161
0 161 -147 -4 c-176 -6 -232 -21 -368 -103 -161 -97 -269 -105 -399 -30 -122
70 -203 104 -286 121 -167 33 -333 1 -495 -95 -125 -75 -198 -92 -297 -66 -34
9 -90 33 -123 55 -139 91 -244 120 -432 120 l-123 0 0 -160z"/>
<path d="M380 861 l0 -161 115 0 c133 0 176 -11 273 -74 106 -69 198 -98 325
-104 157 -7 286 25 395 99 88 59 123 72 210 77 92 5 145 -9 219 -60 127 -86
261 -123 422 -116 125 6 212 32 305 90 123 78 139 83 279 86 l127 4 0 160 0
160 -157 -4 c-150 -4 -162 -6 -236 -36 -43 -18 -97 -45 -120 -61 -82 -56 -129
-74 -204 -79 -90 -6 -143 10 -254 78 -112 68 -189 91 -322 97 -165 8 -278 -21
-411 -108 -81 -53 -152 -73 -235 -67 -72 5 -120 24 -219 87 -111 70 -165 83
-349 89 l-163 4 0 -161z"/>
</g>
</svg>
